<svg width="1118" height="1729" viewBox="0 0 1118 1729" fill="none" xmlns="http://www.w3.org/2000/svg">
<g clip-path="url(#clip0_223_5000)">
<rect width="1728" height="1117" transform="translate(0.5 1728.5) rotate(-90)" fill="white"/>
<line x1="36" y1="1728.5" x2="35.9999" y2="0.500023" stroke="black" stroke-opacity="0.1"/>
<line x1="83" y1="1728.5" x2="82.9999" y2="0.500023" stroke="black" stroke-opacity="0.1"/>
<line x1="130" y1="1728.5" x2="130" y2="0.500015" stroke="black" stroke-opacity="0.1"/>
<line x1="177" y1="1728.5" x2="177" y2="0.500015" stroke="black" stroke-opacity="0.1"/>
<line x1="224" y1="1728.5" x2="224" y2="0.500015" stroke="black" stroke-opacity="0.1"/>
<line x1="271" y1="1728.5" x2="271" y2="0.500015" stroke="black" stroke-opacity="0.1"/>
<line x1="318" y1="1728.5" x2="318" y2="0.500008" stroke="black" stroke-opacity="0.1"/>
<line x1="365" y1="1728.5" x2="365" y2="0.500008" stroke="black" stroke-opacity="0.1"/>
<line x1="412" y1="1728.5" x2="412" y2="0.500008" stroke="black" stroke-opacity="0.1"/>
<line x1="459" y1="1728.5" x2="459" y2="0.500008" stroke="black" stroke-opacity="0.1"/>
<line x1="506" y1="1728.5" x2="506" y2="0.5" stroke="black" stroke-opacity="0.1"/>
<line x1="553" y1="1728.5" x2="553" y2="0.5" stroke="black" stroke-opacity="0.1"/>
<line x1="600" y1="1728.5" x2="600" y2="0.5" stroke="black" stroke-opacity="0.1"/>
<line x1="647" y1="1728.5" x2="647" y2="0.499992" stroke="black" stroke-opacity="0.1"/>
<line x1="694" y1="1728.5" x2="694" y2="0.499992" stroke="black" stroke-opacity="0.1"/>
<line x1="741" y1="1728.5" x2="741" y2="0.499992" stroke="black" stroke-opacity="0.1"/>
<line x1="788" y1="1728.5" x2="788" y2="0.499992" stroke="black" stroke-opacity="0.1"/>
<line x1="835" y1="1728.5" x2="835" y2="0.499985" stroke="black" stroke-opacity="0.1"/>
<line x1="882" y1="1728.5" x2="882" y2="0.499985" stroke="black" stroke-opacity="0.1"/>
<line x1="929" y1="1728.5" x2="929" y2="0.499985" stroke="black" stroke-opacity="0.1"/>
<line x1="976" y1="1728.5" x2="976" y2="0.499985" stroke="black" stroke-opacity="0.1"/>
<line x1="1023" y1="1728.5" x2="1023" y2="0.499977" stroke="black" stroke-opacity="0.1"/>
<line x1="1070" y1="1728.5" x2="1070" y2="0.499977" stroke="black" stroke-opacity="0.1"/>
<line x1="1117" y1="1728.5" x2="1117" y2="0.499977" stroke="black" stroke-opacity="0.1"/>
<line x1="-169.5" y1="647" x2="1558.5" y2="647" stroke="black" stroke-opacity="0.1"/>
<line x1="-169.5" y1="694" x2="1558.5" y2="694" stroke="black" stroke-opacity="0.1"/>
<line x1="-169.5" y1="741" x2="1558.5" y2="741" stroke="black" stroke-opacity="0.1"/>
<line x1="-169.5" y1="788" x2="1558.5" y2="788" stroke="black" stroke-opacity="0.1"/>
<line x1="-169.5" y1="835" x2="1558.5" y2="835" stroke="black" stroke-opacity="0.1"/>
<line x1="-169.5" y1="882" x2="1558.5" y2="882" stroke="black" stroke-opacity="0.1"/>
<line x1="-169.5" y1="929" x2="1558.5" y2="929" stroke="black" stroke-opacity="0.1"/>
<line x1="-169.5" y1="976" x2="1558.5" y2="976" stroke="black" stroke-opacity="0.1"/>
<line x1="-169.5" y1="1023" x2="1558.5" y2="1023" stroke="black" stroke-opacity="0.1"/>
<line x1="-169.5" y1="1070" x2="1558.5" y2="1070" stroke="black" stroke-opacity="0.1"/>
<line x1="-169.5" y1="1117" x2="1558.5" y2="1117" stroke="black" stroke-opacity="0.1"/>
<line x1="-169.5" y1="1164" x2="1558.5" y2="1164" stroke="black" stroke-opacity="0.1"/>
<line x1="-169.5" y1="1211" x2="1558.5" y2="1211" stroke="black" stroke-opacity="0.1"/>
<line x1="-169.5" y1="1258" x2="1558.5" y2="1258" stroke="black" stroke-opacity="0.1"/>
<line x1="-169.5" y1="1305" x2="1558.5" y2="1305" stroke="black" stroke-opacity="0.1"/>
<line x1="-169.5" y1="1352" x2="1558.5" y2="1352" stroke="black" stroke-opacity="0.1"/>
<line x1="-169.5" y1="1399" x2="1558.5" y2="1399" stroke="black" stroke-opacity="0.1"/>
<line x1="-169.5" y1="1446" x2="1558.5" y2="1446" stroke="black" stroke-opacity="0.1"/>
<line x1="-169.5" y1="1493" x2="1558.5" y2="1493" stroke="black" stroke-opacity="0.1"/>
<line x1="-169.5" y1="1540" x2="1558.5" y2="1540" stroke="black" stroke-opacity="0.1"/>
<line x1="-169.5" y1="1587" x2="1558.5" y2="1587" stroke="black" stroke-opacity="0.1"/>
<line x1="-169.5" y1="1634" x2="1558.5" y2="1634" stroke="black" stroke-opacity="0.1"/>
<line x1="-169.5" y1="1681" x2="1558.5" y2="1681" stroke="black" stroke-opacity="0.1"/>
<line x1="-169.5" y1="1728" x2="1558.5" y2="1728" stroke="black" stroke-opacity="0.1"/>
<line x1="-171.5" y1="36" x2="1556.5" y2="36" stroke="black" stroke-opacity="0.1"/>
<line x1="-171.5" y1="83" x2="1556.5" y2="83" stroke="black" stroke-opacity="0.1"/>
<line x1="-171.5" y1="130" x2="1556.5" y2="130" stroke="black" stroke-opacity="0.1"/>
<line x1="-171.5" y1="177" x2="1556.5" y2="177" stroke="black" stroke-opacity="0.1"/>
<line x1="-171.5" y1="224" x2="1556.5" y2="224" stroke="black" stroke-opacity="0.1"/>
<line x1="-171.5" y1="271" x2="1556.5" y2="271" stroke="black" stroke-opacity="0.1"/>
<line x1="-171.5" y1="318" x2="1556.5" y2="318" stroke="black" stroke-opacity="0.1"/>
<line x1="-171.5" y1="365" x2="1556.5" y2="365" stroke="black" stroke-opacity="0.1"/>
<line x1="-171.5" y1="412" x2="1556.5" y2="412" stroke="black" stroke-opacity="0.1"/>
<line x1="-171.5" y1="459" x2="1556.5" y2="459" stroke="black" stroke-opacity="0.1"/>
<line x1="-171.5" y1="506" x2="1556.5" y2="506" stroke="black" stroke-opacity="0.1"/>
<line x1="-171.5" y1="553" x2="1556.5" y2="553" stroke="black" stroke-opacity="0.1"/>
<line x1="-171.5" y1="600" x2="1556.5" y2="600" stroke="black" stroke-opacity="0.1"/>
<g filter="url(#filter0_f_223_5000)">
<path d="M1359 1046C1461.17 1046 1776.5 542.317 1776.5 774C1776.5 1005.68 1211.67 1239.5 1109.5 1239.5C1007.33 1239.5 724 1823.68 724 1592C724 1360.32 1256.83 1046 1359 1046Z" fill="#57DDFC"/>
<path d="M1490.5 456C1592.67 456 1667.63 184.123 1667.63 415.806C1667.63 647.49 856.8 1042.58 754.627 1042.58C652.454 1042.58 325.915 1688.08 325.915 1456.4C325.915 1224.72 1388.33 456 1490.5 456Z" fill="#118484" fill-opacity="0.5"/>
<path d="M742.396 33C844.568 33 1172.9 -576.183 1172.9 -344.5C1172.9 -112.817 679.568 308.589 577.396 308.589C475.223 308.589 69.5 817.684 69.5 586C69.4999 354.317 640.223 33 742.396 33Z" fill="#F4D9FF"/>
<path d="M1245.5 199.483C1347.67 199.483 1579.69 -343.7 1579.69 -112.017C1579.69 119.666 1034.87 395.578 932.693 395.578C830.52 395.578 527.193 937.667 527.193 705.983C527.193 474.3 1143.33 199.483 1245.5 199.483Z" fill="#18D4D4"/>
</g>
<g style="mix-blend-mode:color-dodge">
<line x1="748" y1="1985.5" x2="748" y2="257.5" stroke="black"/>
<line x1="795" y1="1985.5" x2="795" y2="257.5" stroke="black"/>
<line x1="842" y1="1985.5" x2="842" y2="257.5" stroke="black"/>
<line x1="889" y1="1985.5" x2="889" y2="257.5" stroke="black"/>
<line x1="936" y1="1985.5" x2="936" y2="257.5" stroke="black"/>
<line x1="983" y1="1985.5" x2="983" y2="257.5" stroke="black"/>
<line x1="1030" y1="1985.5" x2="1030" y2="257.5" stroke="black"/>
<line x1="1077" y1="1985.5" x2="1077" y2="257.5" stroke="black"/>
<line x1="542.5" y1="904" x2="2270.5" y2="904" stroke="black"/>
<line x1="542.5" y1="951" x2="2270.5" y2="951" stroke="black"/>
<line x1="542.5" y1="998" x2="2270.5" y2="998" stroke="black"/>
<line x1="542.5" y1="1045" x2="2270.5" y2="1045" stroke="black"/>
<line x1="542.5" y1="1092" x2="2270.5" y2="1092" stroke="black"/>
<line x1="542.5" y1="1139" x2="2270.5" y2="1139" stroke="black"/>
<line x1="542.5" y1="1186" x2="2270.5" y2="1186" stroke="black"/>
<line x1="542.5" y1="1233" x2="2270.5" y2="1233" stroke="black"/>
<line x1="542.5" y1="1280" x2="2270.5" y2="1280" stroke="black"/>
<line x1="542.5" y1="1327" x2="2270.5" y2="1327" stroke="black"/>
<line x1="542.5" y1="1374" x2="2270.5" y2="1374" stroke="black"/>
<line x1="542.5" y1="1421" x2="2270.5" y2="1421" stroke="black"/>
<line x1="542.5" y1="1468" x2="2270.5" y2="1468" stroke="black"/>
<line x1="542.5" y1="1515" x2="2270.5" y2="1515" stroke="black"/>
<line x1="542.5" y1="1562" x2="2270.5" y2="1562" stroke="black"/>
<line x1="542.5" y1="1609" x2="2270.5" y2="1609" stroke="black"/>
<line x1="542.5" y1="1656" x2="2270.5" y2="1656" stroke="black"/>
<line x1="542.5" y1="1703" x2="2270.5" y2="1703" stroke="black"/>
<line x1="540.5" y1="11" x2="2268.5" y2="11" stroke="black"/>
<line x1="540.5" y1="58" x2="2268.5" y2="58" stroke="black"/>
<line x1="540.5" y1="105" x2="2268.5" y2="105" stroke="black"/>
<line x1="540.5" y1="152" x2="2268.5" y2="152" stroke="black"/>
<line x1="540.5" y1="199" x2="2268.5" y2="199" stroke="black"/>
<line x1="540.5" y1="246" x2="2268.5" y2="246" stroke="black"/>
<line x1="540.5" y1="293" x2="2268.5" y2="293" stroke="black"/>
<line x1="540.5" y1="340" x2="2268.5" y2="340" stroke="black"/>
<line x1="540.5" y1="387" x2="2268.5" y2="387" stroke="black"/>
<line x1="540.5" y1="434" x2="2268.5" y2="434" stroke="black"/>
<line x1="540.5" y1="481" x2="2268.5" y2="481" stroke="black"/>
<line x1="540.5" y1="528" x2="2268.5" y2="528" stroke="black"/>
<line x1="540.5" y1="575" x2="2268.5" y2="575" stroke="black"/>
<line x1="540.5" y1="622" x2="2268.5" y2="622" stroke="black"/>
<line x1="540.5" y1="669" x2="2268.5" y2="669" stroke="black"/>
<line x1="540.5" y1="716" x2="2268.5" y2="716" stroke="black"/>
<line x1="540.5" y1="763" x2="2268.5" y2="763" stroke="black"/>
<line x1="540.5" y1="810" x2="2268.5" y2="810" stroke="black"/>
<line x1="540.5" y1="857" x2="2268.5" y2="857" stroke="black"/>
<g style="mix-blend-mode:color-dodge" filter="url(#filter1_f_223_5000)">
<path d="M1232 1046.16C1334.17 1046.16 1649.5 542.479 1649.5 774.163C1649.5 1005.85 1084.67 1239.66 982.5 1239.66C880.327 1239.66 597 1823.85 597 1592.16C597 1360.48 1129.83 1046.16 1232 1046.16Z" fill="#57DDFC"/>
<path d="M1258.45 456.163C1360.62 456.163 1435.58 184.285 1435.58 415.969C1435.58 647.652 624.748 1042.74 522.576 1042.74C420.403 1042.74 93.8637 1688.25 93.8637 1456.56C93.8637 1224.88 1156.28 456.163 1258.45 456.163Z" fill="#118484"/>
<path d="M615.396 33.1629C717.568 33.1629 1045.9 -576.021 1045.9 -344.337C1045.9 -112.654 552.568 308.752 450.396 308.752C348.223 308.752 -57.5 817.846 -57.5 586.163C-57.5001 354.48 513.223 33.1629 615.396 33.1629Z" fill="#F4D9FF"/>
<path d="M1118.5 199.646C1220.67 199.646 1452.69 -343.538 1452.69 -111.854C1452.69 119.829 907.866 395.741 805.693 395.741C703.52 395.741 400.193 937.829 400.193 706.146C400.193 474.463 1016.33 199.646 1118.5 199.646Z" fill="#18D4D4"/>
</g>
</g>
</g>
<defs>
<filter id="filter0_f_223_5000" x="-130.5" y="-597.069" width="2107" height="2443.41" filterUnits="userSpaceOnUse" color-interpolation-filters="sRGB">
<feFlood flood-opacity="0" result="BackgroundImageFix"/>
<feBlend mode="normal" in="SourceGraphic" in2="BackgroundImageFix" result="shape"/>
<feGaussianBlur stdDeviation="100" result="effect1_foregroundBlur_223_5000"/>
</filter>
<filter id="filter1_f_223_5000" x="-257.5" y="-596.906" width="2107" height="2443.41" filterUnits="userSpaceOnUse" color-interpolation-filters="sRGB">
<feFlood flood-opacity="0" result="BackgroundImageFix"/>
<feBlend mode="normal" in="SourceGraphic" in2="BackgroundImageFix" result="shape"/>
<feGaussianBlur stdDeviation="100" result="effect1_foregroundBlur_223_5000"/>
</filter>
<clipPath id="clip0_223_5000">
<rect width="1728" height="1117" fill="white" transform="translate(0.5 1728.5) rotate(-90)"/>
</clipPath>
</defs>
</svg>
